<?xml version="1.0" standalone="no"?>
<!DOCTYPE svg PUBLIC "-//W3C//DTD SVG 20010904//EN"
 "http://www.w3.org/TR/2001/REC-SVG-20010904/DTD/svg10.dtd">
<svg version="1.0" xmlns="http://www.w3.org/2000/svg"
 width="612.000000pt" height="407.000000pt" viewBox="0 0 612.000000 407.000000"
 preserveAspectRatio="xMidYMid meet">

<g transform="translate(0.000000,407.000000) scale(0.100000,-0.100000)"
fill="#000000" stroke="none">
<path d="M0 4018 c1 -44 2 -50 12 -33 6 11 21 30 34 43 33 31 30 42 -11 42
l-35 0 0 -52z"/>
<path d="M2053 4033 c4 -21 9 -63 13 -95 6 -55 6 -56 -24 -72 -44 -23 -127
-20 -179 5 -24 12 -42 27 -41 34 2 8 -1 14 -7 14 -5 0 -9 -7 -7 -15 3 -12 -4
-14 -35 -9 -57 10 -73 15 -73 26 0 21 -31 7 -41 -18 -12 -32 -3 -66 11 -43 7
11 10 12 10 2 0 -7 4 -11 9 -8 5 3 45 -10 89 -29 101 -44 160 -46 278 -10 19
6 23 1 34 -44 14 -59 55 -179 64 -188 3 -4 6 -15 6 -25 0 -10 4 -18 9 -18 5 0
14 -15 22 -32 7 -18 20 -44 29 -58 10 -14 20 -45 23 -70 4 -36 13 -52 44 -78
35 -31 38 -32 41 -13 2 11 -26 76 -62 143 -62 119 -116 261 -131 346 l-7 41
139 -6 c76 -3 147 -5 158 -5 47 2 123 20 165 38 l45 20 -37 18 c-26 12 -48 16
-70 12 -73 -15 -316 -33 -363 -27 l-49 6 -12 65 c-7 36 -13 80 -13 98 -1 26
-5 32 -22 32 -19 0 -21 -4 -16 -37z"/>
<path d="M2711 3928 c80 -79 156 -150 168 -158 44 -28 72 -52 67 -57 -2 -3
-22 7 -43 21 -45 31 -61 34 -32 5 17 -17 18 -22 6 -32 -7 -7 -19 -31 -26 -55
-7 -24 -21 -52 -32 -63 -17 -17 -23 -18 -36 -7 -22 18 -43 71 -43 107 0 17 11
42 25 59 42 51 30 75 -28 53 -52 -20 -68 -140 -26 -203 13 -20 29 -37 35 -38
6 0 17 -7 24 -15 22 -26 51 -16 96 32 24 26 44 50 44 55 0 14 36 27 58 21 13
-3 22 -13 22 -25 0 -10 4 -17 9 -14 5 3 14 -7 19 -24 10 -28 8 -32 -40 -73
-54 -46 -58 -72 -10 -61 31 8 76 47 100 87 9 15 22 27 29 27 7 0 13 -12 13
-27 0 -50 -68 -445 -97 -560 -4 -17 -1 -23 11 -23 12 0 16 -10 16 -37 0 -35 1
-36 15 -17 14 18 14 18 16 -6 1 -17 3 -20 6 -7 2 9 9 17 14 17 14 0 11 30 -3
30 -7 0 -5 5 5 11 9 5 23 7 30 3 9 -6 9 -5 0 8 -7 8 -13 26 -12 39 0 13 0 49
-1 79 -3 112 12 400 21 394 5 -3 10 -26 11 -52 1 -39 2 -41 5 -12 6 59 10 63
38 43 13 -10 25 -25 25 -33 0 -13 2 -13 9 -1 6 9 11 -9 16 -55 9 -101 13 -108
14 -30 l1 69 24 -28 c14 -16 29 -45 34 -64 10 -35 10 -36 11 -6 2 49 18 16 35
-70 18 -94 24 -145 30 -240 7 -98 93 -370 132 -416 8 -8 14 -23 14 -33 0 -9
10 -20 23 -25 27 -11 26 -12 20 22 -4 22 -8 25 -15 15 -7 -9 -8 -7 -3 8 3 12
-4 45 -16 75 -49 125 -88 253 -119 389 -18 80 -37 163 -43 185 -17 60 -17 88
-1 74 8 -6 14 -16 14 -21 0 -5 18 -26 40 -47 51 -47 61 -81 65 -209 2 -57 8
-108 13 -115 11 -16 37 -100 61 -208 22 -93 43 -162 71 -224 10 -22 23 -53 28
-70 6 -16 26 -68 46 -115 l35 -85 43 -3 c23 -2 46 -9 50 -15 5 -9 10 -9 19 0
9 9 1 26 -34 72 -65 87 -83 128 -173 386 -29 83 -101 358 -120 455 -4 24 -4
24 11 5 17 -21 45 -107 45 -136 0 -9 7 -30 15 -45 8 -16 15 -39 15 -51 0 -33
17 -28 25 7 8 35 18 37 45 10 11 -11 27 -20 35 -20 9 0 15 -9 15 -25 0 -14 4
-33 9 -43 5 -9 21 -80 36 -156 20 -109 37 -163 76 -250 54 -121 170 -351 230
-459 22 -38 39 -75 39 -83 0 -8 5 -14 10 -14 6 0 10 9 10 20 0 11 11 54 25 96
14 42 25 84 24 93 0 13 -2 13 -6 1 -3 -8 -14 -23 -25 -34 -10 -11 -18 -23 -18
-28 0 -4 -5 -8 -10 -8 -6 0 -9 3 -9 8 4 23 -3 52 -14 64 -7 7 -19 32 -26 56
-8 23 -21 48 -29 54 -8 7 -18 23 -23 36 -5 13 -13 21 -17 18 -5 -3 -15 13 -22
34 -7 22 -17 40 -22 40 -4 0 -8 9 -8 19 0 11 -11 42 -25 69 -14 28 -25 55 -25
61 0 6 -20 73 -44 148 -25 76 -52 164 -62 196 -9 31 -21 57 -25 57 -5 0 -9 5
-9 10 0 27 35 1 123 -91 54 -57 94 -106 90 -113 -3 -6 -3 -8 2 -4 10 10 75
-41 75 -59 0 -7 6 -16 14 -19 8 -3 24 -25 35 -48 28 -61 89 -126 118 -126 12
0 23 -4 23 -10 0 -5 -4 -10 -9 -10 -5 0 -7 -9 -4 -20 3 -11 12 -20 20 -20 12
0 14 8 10 35 l-6 34 34 -31 c19 -17 32 -34 29 -39 -12 -21 41 -85 79 -94 19
-5 73 -56 162 -152 108 -118 134 -152 138 -182 15 -101 49 -257 67 -302 25
-68 82 -160 95 -156 5 2 12 28 15 58 3 30 9 53 14 52 16 -3 25 -27 14 -40 -8
-10 -6 -13 7 -13 11 0 15 -5 11 -15 -3 -8 -1 -15 4 -15 5 0 6 -7 3 -17 -4 -11
-3 -14 5 -9 9 5 9 0 2 -20 -6 -15 -8 -29 -5 -32 3 -3 5 0 5 6 0 7 4 12 9 12 5
0 7 -9 4 -20 -3 -13 1 -22 11 -26 20 -8 51 -64 36 -64 -5 0 -10 6 -11 13 0 6
-5 3 -10 -9 -8 -16 -1 -42 35 -124 25 -58 46 -114 46 -125 0 -20 19 -58 20
-40 1 6 17 -19 36 -55 33 -63 37 -51 6 20 -8 19 -16 40 -17 47 -2 6 -13 25
-25 41 -13 18 -19 35 -15 43 6 8 4 10 -5 4 -10 -6 -11 -1 -6 21 4 18 3 24 -2
16 -7 -11 -10 -10 -16 3 -9 23 -8 27 5 19 7 -4 10 -2 8 5 -3 7 -8 11 -12 9
-13 -5 -28 29 -20 48 8 21 42 -43 114 -216 41 -100 46 -117 32 -127 -20 -15
-13 -46 13 -57 12 -5 27 -18 33 -29 8 -11 8 -16 2 -12 -6 3 -11 1 -11 -5 0 -6
7 -13 15 -16 13 -5 13 -8 0 -21 -8 -8 -15 -29 -15 -46 0 -24 3 -28 12 -19 14
14 20 45 7 36 -5 -3 -9 0 -9 5 0 6 9 11 20 11 19 0 22 -5 34 -66 0 -4 -10 -9
-24 -11 -40 -5 -50 -11 -44 -27 5 -12 -7 -13 -73 -9 -65 5 -87 2 -124 -14 -97
-43 -147 -113 -135 -191 3 -20 8 -59 11 -87 3 -27 8 -65 11 -82 5 -28 3 -34
-19 -44 -29 -13 -27 -23 11 -81 18 -29 31 -38 52 -38 29 0 54 -22 64 -57 l7
-23 488 0 c365 0 490 3 499 12 9 9 12 9 12 0 0 -8 19 -12 55 -12 l55 0 0 35
c0 43 0 43 -140 10 -144 -34 -161 -33 -210 11 -22 20 -40 39 -40 43 0 9 297
62 348 61 40 0 42 1 42 30 0 21 -4 28 -14 24 -8 -3 -106 -25 -218 -49 l-203
-44 -30 28 c-16 16 -45 36 -63 45 -31 16 -37 16 -102 -2 l-68 -19 5 33 c4 21
0 42 -9 56 -8 13 -18 46 -22 73 -20 137 -56 206 -129 246 l-47 25 90 13 c50 7
88 16 85 21 -8 13 34 23 48 12 8 -7 50 -4 127 9 63 10 178 28 255 38 77 11
175 26 218 32 l78 13 -2 267 -1 267 -27 5 c-14 3 -31 1 -38 -5 -16 -13 -5 -38
18 -38 24 0 25 -19 2 -22 -10 0 -22 -2 -28 -3 -5 -2 -16 -3 -23 -4 -8 -1 -11
-8 -7 -20 3 -11 2 -22 -3 -25 -12 -7 -53 5 -47 14 7 11 -32 23 -45 15 -5 -3
-10 -13 -10 -22 0 -9 -6 -13 -14 -10 -17 7 -68 -16 -86 -38 -7 -8 -19 -15 -26
-15 -8 0 -14 -3 -14 -8 0 -4 -15 -7 -32 -7 -25 0 -33 -4 -33 -17 0 -10 5 -18
10 -19 6 0 14 -7 19 -16 10 -19 -13 -36 -30 -22 -15 12 -29 -5 -18 -22 4 -7 1
-10 -7 -7 -9 3 -20 -10 -31 -35 -10 -21 -18 -40 -18 -41 0 0 11 -1 25 -1 28 0
35 25 8 26 -21 1 54 37 78 38 9 1 19 10 22 21 3 11 11 20 17 20 9 0 10 -3 1
-13 -7 -10 -7 -17 0 -24 18 -18 1 -32 -37 -29 -38 3 -42 -13 -6 -29 12 -5 22
-13 22 -17 0 -4 -11 -3 -24 4 -20 8 -28 7 -41 -6 -9 -9 -12 -16 -6 -16 6 0 11
-5 11 -11 0 -5 -4 -7 -10 -4 -5 3 -10 1 -10 -6 0 -6 -8 -9 -20 -6 -11 3 -20 1
-20 -4 0 -5 5 -9 11 -9 6 0 8 -7 5 -16 -4 -10 1 -22 11 -30 11 -8 13 -13 6
-14 -7 0 -24 19 -39 41 -21 34 -23 43 -12 51 10 7 8 8 -6 6 -13 -2 -24 6 -33
22 -14 28 -1 39 22 20 13 -11 15 -9 12 6 -5 31 -27 65 -38 59 -5 -4 -7 -10 -4
-15 3 -5 1 -12 -5 -15 -15 -9 -40 14 -40 37 0 10 -4 17 -9 14 -13 -8 -89 80
-93 107 -2 15 -10 22 -26 23 -33 2 -38 10 -61 94 -14 55 -18 92 -14 134 5 53
10 61 57 106 39 37 49 53 41 63 -5 8 -44 58 -85 112 -101 131 -193 259 -229
320 -51 85 -47 82 -70 61 -27 -25 -37 -15 -45 43 -4 28 -12 54 -19 58 -7 4
-16 15 -22 24 -5 9 -28 40 -49 68 -38 51 -41 53 -78 47 -30 -5 -45 -2 -67 15
-24 18 -37 20 -77 14 -100 -15 -208 -11 -237 7 -14 10 -36 18 -47 18 -21 0
-99 58 -100 73 0 15 -666 689 -1005 1017 -655 634 -666 645 -699 648 -28 3
-19 -9 115 -140z m2077 -1675 c6 -19 -25 -16 -32 3 -4 11 -1 14 11 12 9 -2 18
-9 21 -15z m71 8 c8 -5 9 -11 3 -15 -5 -3 -15 1 -22 9 -14 16 -3 20 19 6z
m-163 -211 c10 0 14 -12 14 -42 l-1 -43 -49 55 c-27 30 -50 59 -50 63 0 5 16
0 36 -12 19 -12 42 -21 50 -21z m554 -890 c8 -5 11 -12 7 -16 -4 -4 -15 0 -24
9 -18 18 -8 23 17 7z m620 -40 c0 -5 -4 -10 -9 -10 -6 0 -13 5 -16 10 -3 6 1
10 9 10 9 0 16 -4 16 -10z m78 -22 c-6 -18 -28 -21 -28 -4 0 9 7 16 16 16 9 0
14 -5 12 -12z m-698 -23 c16 -19 1 -19 -24 0 -16 12 -17 15 -4 15 8 0 21 -7
28 -15z m630 -70 c0 -16 -35 -21 -44 -6 -8 12 4 21 26 21 10 0 18 -7 18 -15z
m55 -6 c-4 -5 1 -9 10 -9 9 0 13 4 10 10 -3 6 1 7 9 4 20 -8 20 -9 0 -29 -15
-14 -18 -14 -35 6 -18 21 -17 45 2 33 5 -3 7 -10 4 -15z m-635 -19 c0 -5 -4
-10 -10 -10 -5 0 -10 5 -10 10 0 6 5 10 10 10 6 0 10 -4 10 -10z m113 -160
c26 -32 47 -67 47 -79 0 -14 6 -21 19 -21 19 0 48 -26 39 -35 -3 -3 -33 -6
-68 -7 -35 -1 -58 -4 -51 -6 23 -8 -22 -31 -59 -31 l-35 1 37 10 c33 9 36 13
40 50 2 22 -2 47 -8 56 -6 10 -18 37 -25 62 -7 25 -22 53 -33 62 -18 15 -19
18 -4 18 12 0 16 6 12 18 -3 9 5 4 18 -12 13 -16 44 -55 71 -86z m340 -27 c-3
-7 -9 -10 -14 -7 -14 8 -11 21 5 21 8 0 12 -6 9 -14z m7 -73 c0 -5 -5 -10 -11
-10 -5 0 -7 5 -4 10 3 6 8 10 11 10 2 0 4 -4 4 -10z m-563 -496 c-3 -3 -12 -4
-19 -1 -8 3 -5 6 6 6 11 1 17 -2 13 -5z m868 -204 c13 -5 14 -9 5 -9 -8 0 -24
4 -35 9 -13 5 -14 9 -5 9 8 0 24 -4 35 -9z"/>
<path d="M1870 3995 c0 -18 5 -25 18 -25 26 0 33 10 21 31 -14 28 -39 24 -39
-6z"/>
<path d="M1508 3871 c-29 -41 -35 -61 -18 -61 6 0 10 8 11 18 0 9 9 -15 19
-54 10 -39 18 -79 17 -90 -1 -10 3 -19 9 -19 16 0 76 73 69 85 -10 17 -33 11
-40 -10 -9 -29 -21 -25 -34 11 -14 40 -14 129 -1 129 6 0 10 7 10 15 0 25 -13
17 -42 -24z"/>
<path d="M1447 3804 c-3 -3 0 -15 6 -25 13 -21 2 -49 -23 -57 -9 -3 -11 2 -7
17 3 15 1 21 -6 18 -13 -4 -14 -51 -2 -109 5 -26 4 -38 -4 -38 -7 0 -9 9 -5
25 5 20 3 24 -9 19 -10 -3 -20 3 -27 16 -9 16 -15 19 -25 10 -9 -8 -12 -32
-10 -85 2 -41 -1 -77 -6 -80 -5 -4 -10 3 -10 14 -1 12 -3 24 -4 29 -2 4 -6 17
-10 29 -9 29 -25 20 -25 -15 0 -15 -9 -35 -20 -45 -26 -22 -25 -35 5 -72 20
-24 25 -26 25 -12 0 10 -5 27 -11 38 -8 15 -7 24 3 36 11 14 14 13 18 -12 5
-31 30 -47 30 -20 0 9 5 13 10 10 6 -3 10 4 11 17 1 41 7 61 24 77 15 15 17
15 26 -1 13 -24 22 -22 35 5 6 15 7 33 2 47 -6 17 -4 28 9 42 17 19 18 19 45
-14 32 -38 38 -19 9 29 -11 17 -21 48 -23 69 -3 35 -16 52 -31 38z m-77 -174
c0 -5 -4 -10 -10 -10 -5 0 -10 5 -10 10 0 6 5 10 10 10 6 0 10 -4 10 -10z"/>
<path d="M2587 3610 c5 -27 0 -35 -41 -71 -26 -23 -56 -59 -67 -81 -24 -48
-57 -155 -56 -183 2 -55 -4 -138 -10 -132 -10 11 -33 -14 -33 -37 0 -11 16
-41 35 -65 19 -24 35 -47 35 -52 0 -4 6 -14 14 -21 16 -17 58 -107 76 -163 6
-22 18 -53 26 -68 16 -33 18 -47 5 -47 -5 0 -14 13 -21 30 -16 40 -84 100
-113 100 -32 0 -41 -9 -72 -66 -41 -76 -123 -110 -146 -61 -8 19 -6 36 14 85
14 34 35 76 47 92 25 35 20 60 -10 60 -17 0 -30 -18 -61 -84 -21 -46 -39 -96
-39 -110 0 -34 21 -74 53 -104 l24 -23 55 24 c39 18 65 39 94 75 49 63 73 67
104 15 13 -21 22 -50 22 -64 -1 -33 -54 -124 -92 -156 -32 -26 -40 -62 -15
-64 8 -1 19 -2 24 -3 25 -3 141 196 141 240 0 8 4 14 9 14 5 0 12 12 15 28 5
19 -4 51 -29 107 -49 114 -47 129 18 118 34 -5 37 -8 43 -52 3 -25 10 -53 15
-61 6 -13 9 -12 14 3 4 9 3 23 -3 30 -5 6 -12 26 -14 42 -2 23 2 32 19 40 13
5 25 16 28 25 5 12 4 13 -6 3 -24 -24 -49 -16 -49 17 0 17 -5 30 -11 30 -6 0
-9 -12 -7 -27 3 -25 0 -28 -22 -25 -36 4 -41 14 -20 41 15 21 27 25 84 27 77
3 86 7 86 40 0 18 -4 23 -12 17 -31 -19 -77 -13 -104 15 -10 9 -25 18 -33 19
-138 15 -143 16 -152 40 -12 33 -12 140 1 148 6 4 10 -5 10 -19 0 -14 4 -26 9
-26 5 0 9 24 9 53 0 109 18 164 63 187 15 9 14 2 -8 -53 -14 -34 -27 -71 -30
-82 -5 -25 30 -73 63 -85 13 -5 26 -20 28 -32 3 -13 9 -45 14 -73 l10 -50 1
52 1 53 60 -46 c33 -25 60 -50 60 -55 0 -11 30 -12 48 -1 15 10 4 47 -14 47
-6 0 -31 18 -55 40 l-45 39 24 43 c28 50 31 52 76 58 31 4 38 1 50 -23 9 -15
15 -20 16 -12 0 9 10 16 21 17 12 1 27 7 33 13 13 13 -15 43 -43 45 -12 1 -46
29 -76 63 -43 47 -65 63 -93 68 -61 11 -72 20 -72 64 0 29 -4 40 -15 40 -11 0
-13 -8 -8 -30z m88 -144 c17 -23 12 -72 -12 -118 -17 -35 -31 -35 -43 -2 -11
27 -14 137 -4 146 10 11 44 -4 59 -26z m92 -16 c14 -18 2 -33 -22 -28 -12 2
-19 15 -21 37 -4 31 -3 32 13 20 10 -8 23 -21 30 -29z m-168 -41 c1 -44 -5
-51 -30 -36 -23 14 -24 27 -3 75 14 33 17 35 24 17 5 -11 9 -36 9 -56z m-53
-332 c6 -16 -12 -67 -24 -67 -12 0 -44 59 -37 70 9 15 55 12 61 -3z"/>
<path d="M1206 3462 c-3 -5 -5 -26 -4 -46 2 -48 -17 -68 -32 -35 -15 34 -42
33 -75 -1 -26 -27 -27 -33 -21 -87 4 -32 6 -68 6 -80 0 -40 25 -25 53 32 33
67 34 95 6 102 -12 4 -18 11 -15 20 3 8 6 17 6 19 0 14 19 0 28 -21 15 -32 39
-32 54 0 9 19 14 22 20 13 6 -8 7 5 3 32 -7 47 -19 68 -29 52z m-109 -134 c-3
-8 -6 -5 -6 6 -1 11 2 17 5 13 3 -3 4 -12 1 -19z m43 -25 c-1 -19 -22 -53 -34
-53 -9 0 -7 29 4 51 13 24 30 25 30 2z"/>
<path d="M1813 3441 c-23 -4 -51 -15 -61 -24 -10 -9 -24 -17 -30 -17 -6 0 -19
-12 -29 -27 -10 -16 -23 -32 -30 -36 -7 -4 -13 -26 -13 -47 0 -22 -4 -40 -10
-40 -10 0 -14 14 -11 38 1 6 -7 12 -19 12 -11 0 -20 -7 -20 -15 0 -9 -7 -18
-15 -21 -8 -4 -15 -10 -15 -14 0 -8 113 -125 170 -176 48 -43 162 -167 177
-192 10 -17 9 -19 -8 -15 -10 3 -19 9 -19 14 0 5 -8 9 -17 9 -9 0 -24 6 -32
14 -9 7 -47 23 -86 36 -38 12 -85 29 -103 36 -18 8 -37 12 -42 9 -4 -3 -13 2
-20 10 -7 8 -18 15 -26 15 -7 0 -47 17 -88 39 -71 37 -76 38 -91 21 -11 -12
-13 -20 -6 -25 6 -3 11 -15 11 -26 0 -11 10 -23 23 -28 33 -14 115 -103 128
-139 6 -18 17 -32 24 -32 7 0 20 -11 28 -24 9 -13 28 -37 42 -52 15 -16 24
-36 22 -46 -6 -20 38 -54 48 -38 3 6 12 10 19 10 16 0 156 -131 156 -146 0
-12 79 -39 88 -29 3 3 -5 16 -18 29 -29 27 -154 165 -195 214 -15 18 -31 48
-35 65 -5 24 -11 31 -24 29 -19 -4 -98 66 -118 103 -10 19 -10 19 13 -1 13
-12 40 -24 60 -27 20 -3 57 -15 81 -26 25 -11 70 -29 100 -41 30 -11 65 -31
78 -45 13 -14 32 -25 42 -25 10 0 18 -7 18 -15 0 -14 12 -19 33 -16 4 0 7 -5
7 -11 0 -16 58 -50 71 -42 22 13 7 55 -32 91 -23 21 -50 57 -60 80 -10 23 -42
68 -71 101 -29 33 -75 88 -103 123 -27 35 -53 66 -57 67 -5 2 -8 10 -8 17 0 8
-18 28 -40 46 -36 29 -44 49 -19 49 6 0 7 -5 3 -11 -4 -7 1 -10 12 -7 10 2 33
-11 53 -31 20 -18 54 -46 76 -61 22 -15 52 -41 66 -56 14 -16 45 -44 67 -63
23 -19 50 -52 59 -73 9 -21 20 -38 24 -38 5 0 15 -15 24 -34 23 -48 49 -70 62
-54 37 47 74 134 72 172 -4 138 -47 245 -138 351 -60 69 -62 70 -128 82 -38 6
-70 11 -73 11 -3 0 -24 -4 -47 -7z m92 -51 c3 -5 16 -10 29 -10 12 0 26 -4 32
-10 5 -5 20 -11 34 -13 17 -3 41 -28 83 -89 57 -84 59 -88 67 -174 7 -87 2
-120 -26 -168 -10 -17 -15 -14 -60 34 -27 29 -60 70 -74 91 -14 21 -31 39 -37
39 -7 0 -22 20 -33 44 -12 23 -33 49 -48 57 -15 8 -29 17 -32 20 -3 4 -24 16
-47 28 -37 18 -43 26 -44 54 0 27 -2 29 -9 12 -6 -14 -9 -15 -9 -5 -1 9 12 31
27 49 24 28 34 33 70 33 23 0 42 3 42 9 0 12 27 12 35 -1z m-191 -216 c3 -8 2
-12 -4 -9 -6 3 -10 10 -10 16 0 14 7 11 14 -7z"/>
<path d="M1208 3229 c-21 -22 -38 -45 -38 -50 0 -5 -11 -21 -25 -35 -26 -26
-66 -82 -95 -133 -8 -14 -19 -29 -24 -33 -5 -3 -2 -21 7 -41 10 -19 17 -39 17
-44 0 -5 14 -37 30 -71 17 -34 30 -67 30 -72 0 -16 71 -139 84 -148 7 -4 15
-14 18 -22 2 -8 7 -10 10 -4 4 5 -11 41 -33 78 -22 37 -49 91 -61 119 -12 29
-31 65 -42 81 -27 40 -27 119 0 145 29 28 123 137 155 179 29 38 39 92 17 92
-7 0 -30 -19 -50 -41z"/>
<path d="M3051 2864 c0 -11 3 -14 6 -6 3 7 2 16 -1 19 -3 4 -6 -2 -5 -13z"/>
<path d="M3077 2863 c-4 -3 -7 -13 -7 -22 1 -13 3 -13 11 2 11 19 8 33 -4 20z"/>
<path d="M3042 2684 c0 -145 -1 -153 -24 -188 -23 -33 -43 -41 -32 -13 3 10
-38 37 -57 37 -4 0 -12 -21 -18 -47 -7 -27 -14 -56 -17 -65 -4 -13 -1 -16 10
-12 10 4 16 1 16 -9 0 -26 18 -29 39 -6 11 12 24 18 30 15 6 -4 13 8 17 29 7
39 24 57 24 26 0 -12 4 -21 10 -21 6 0 9 -26 7 -62 -1 -42 2 -63 11 -65 6 -3
12 3 12 12 0 13 3 15 13 7 10 -9 13 -4 13 21 0 44 54 161 68 147 15 -15 36
-12 30 5 -7 16 -64 21 -64 5 0 -5 -7 -7 -16 -3 -15 6 -16 45 -1 118 3 11 5 30
6 42 0 12 11 31 23 43 17 16 19 23 10 32 -7 7 -12 8 -12 2 0 -14 -41 -57 -48
-50 -3 3 2 14 10 23 24 29 30 53 11 53 -14 0 -14 2 2 20 17 19 17 20 -1 22
-10 0 -25 1 -31 1 -7 -1 -13 3 -13 9 0 5 -4 7 -9 4 -5 -4 -12 0 -15 6 -2 7 -5
-55 -4 -138z m5 -216 c-3 -8 -6 -5 -6 6 -1 11 2 17 5 13 3 -3 4 -12 1 -19z
m44 -33 c-9 -30 -9 -30 -8 7 1 20 5 34 9 30 4 -4 3 -21 -1 -37z"/>
<path d="M1440 2793 c-8 -10 -30 -40 -50 -69 -19 -28 -55 -69 -80 -90 -25 -22
-57 -49 -70 -62 l-24 -22 32 -44 c18 -24 32 -46 32 -48 0 -13 110 -116 115
-108 3 5 -4 20 -15 32 -12 13 -39 49 -60 80 l-38 57 45 48 c148 157 176 200
153 228 -16 19 -21 18 -40 -2z"/>
<path d="M791 2654 c0 -11 3 -14 6 -6 3 7 2 16 -1 19 -3 4 -6 -2 -5 -13z"/>
<path d="M1020 2604 c0 -21 4 -33 10 -29 6 3 10 19 10 36 0 16 -4 29 -10 29
-5 0 -10 -16 -10 -36z"/>
<path d="M763 2588 c-12 -26 -27 -65 -33 -87 -6 -22 -19 -68 -30 -102 -11 -34
-20 -63 -20 -64 0 -2 9 -1 21 2 16 5 19 11 14 30 -4 16 -2 22 5 18 5 -3 10 1
10 9 0 9 13 30 30 48 25 28 31 31 40 18 5 -8 10 -29 10 -45 0 -33 48 -117 62
-109 4 3 8 -1 8 -9 0 -8 6 -20 14 -27 8 -6 12 -18 9 -26 -7 -19 16 -64 33 -64
13 0 24 22 24 51 0 26 24 24 39 -3 12 -24 12 -22 -6 81 l-6 34 -17 -22 -17
-23 -26 31 c-14 17 -30 31 -36 31 -6 0 -11 5 -11 11 0 6 -9 9 -20 6 -26 -7
-35 12 -44 83 -4 30 -11 59 -16 65 -5 6 -10 33 -12 60 l-3 50 -22 -47z m186
-312 c10 -11 9 -14 -4 -12 -8 1 -21 8 -27 14 -9 9 -8 12 4 12 8 0 21 -6 27
-14z"/>
<path d="M2965 2620 c-3 -5 -2 -10 4 -10 5 0 13 5 16 10 3 6 2 10 -4 10 -5 0
-13 -4 -16 -10z"/>
<path d="M3280 2620 c0 -5 5 -10 11 -10 5 0 7 5 4 10 -3 6 -8 10 -11 10 -2 0
-4 -4 -4 -10z"/>
<path d="M3200 2571 c0 -6 4 -13 10 -16 6 -3 7 1 4 9 -7 18 -14 21 -14 7z"/>
<path d="M2061 2515 c-23 -61 -26 -85 -11 -85 6 0 10 8 10 18 0 9 11 37 25 60
23 41 25 62 5 62 -5 0 -18 -25 -29 -55z"/>
<path d="M3222 2491 c2 -7 7 -12 11 -12 12 1 9 15 -3 20 -7 2 -11 -2 -8 -8z"/>
<path d="M2100 2475 c0 -9 213 -215 222 -215 20 0 1 24 -96 118 -92 89 -126
116 -126 97z"/>
<path d="M3550 2466 c0 -5 66 -36 78 -36 11 0 -17 24 -30 26 -7 1 -21 5 -30 9
-10 4 -18 4 -18 1z"/>
<path d="M1848 2422 c-13 -16 -30 -43 -37 -59 -6 -16 -25 -37 -41 -46 -16 -10
-31 -25 -34 -35 -3 -9 -19 -26 -36 -37 -16 -11 -30 -27 -30 -37 0 -30 -23 -25
-87 19 -35 24 -66 43 -69 43 -3 0 -24 16 -47 35 -48 42 -54 43 -54 10 0 -18 8
-30 26 -39 15 -8 44 -30 66 -50 21 -20 47 -36 56 -36 18 0 42 -27 72 -80 14
-26 20 -30 32 -20 7 6 16 24 20 39 3 15 21 43 40 62 19 19 35 39 35 45 0 19
41 65 66 74 13 5 24 17 24 27 0 10 9 33 20 51 13 22 17 38 12 48 -7 13 -13 11
-34 -14z m-178 -252 c0 -5 -4 -10 -10 -10 -5 0 -10 5 -10 10 0 6 5 10 10 10 6
0 10 -4 10 -10z"/>
<path d="M3360 2426 c0 -7 7 -19 15 -26 16 -13 20 -3 9 24 -8 20 -24 21 -24 2z"/>
<path d="M3440 2432 c0 -5 7 -15 15 -22 8 -7 15 -8 15 -2 0 5 -7 15 -15 22 -8
7 -15 8 -15 2z"/>
<path d="M1016 2387 c3 -10 9 -15 12 -12 3 3 0 11 -7 18 -10 9 -11 8 -5 -6z"/>
<path d="M1996 2384 c-9 -24 -7 -46 4 -39 6 3 10 2 10 -4 0 -5 -8 -15 -17 -20
-16 -9 -16 -10 5 -11 18 0 22 -6 22 -32 1 -32 1 -32 13 -11 l13 23 17 -29 c9
-15 14 -31 11 -34 -3 -3 17 -30 45 -59 28 -29 51 -59 51 -65 0 -7 5 -13 10
-13 16 0 12 -20 -6 -27 -19 -7 -105 74 -135 127 -19 33 -77 80 -99 80 -18 0
-10 -20 17 -43 50 -41 83 -81 72 -87 -5 -4 -7 -13 -4 -21 3 -9 -1 -28 -9 -43
-10 -21 -12 -36 -4 -63 5 -19 7 -37 5 -40 -6 -5 -73 61 -122 121 -28 35 -40
42 -60 38 -38 -7 -30 -62 9 -62 24 0 106 -74 106 -96 0 -7 19 -25 41 -40 23
-14 44 -34 46 -45 3 -10 9 -19 13 -19 5 0 15 -7 24 -15 8 -8 22 -12 30 -9 20
8 21 38 1 54 -8 7 -15 28 -15 47 0 19 -4 32 -10 28 -11 -7 -26 42 -16 53 12
11 54 13 61 2 4 -6 1 -18 -7 -27 -12 -15 -11 -15 9 -5 25 14 36 15 29 4 -3 -5
8 -6 25 -4 27 4 29 7 27 41 -2 25 1 35 10 34 13 -3 15 18 6 54 -4 15 -11 20
-22 16 -10 -5 -28 8 -53 37 -33 38 -36 46 -27 71 12 36 44 38 59 5 7 -14 17
-22 25 -19 7 3 29 -5 48 -16 22 -14 37 -18 41 -11 7 12 -2 30 -16 30 -6 0 -42
21 -81 48 -177 118 -191 125 -202 96z m98 -67 c16 -12 14 -47 -3 -47 -7 0 -31
44 -31 55 0 9 16 5 34 -8z m-16 -222 l22 -25 -24 0 c-17 0 -25 7 -28 25 -3 14
-2 25 2 25 3 0 16 -11 28 -25z"/>
<path d="M3490 2396 c0 -2 7 -7 16 -10 8 -3 12 -2 9 4 -6 10 -25 14 -25 6z"/>
<path d="M6103 2354 c-3 -8 -1 -25 5 -37 10 -20 11 -18 11 16 1 39 -5 48 -16
21z"/>
<path d="M1030 2355 c0 -15 18 -40 24 -34 3 3 -1 14 -9 25 -8 10 -14 15 -15 9z"/>
<path d="M3252 2348 c3 -7 13 -15 24 -17 16 -3 17 -1 5 13 -16 19 -34 21 -29
4z"/>
<path d="M3102 2309 c-12 -26 -21 -37 -25 -28 -3 8 -6 3 -6 -11 -1 -15 5 -32
12 -39 10 -11 10 -13 0 -7 -9 5 -13 0 -13 -13 0 -35 -12 -51 -36 -51 -28 0
-44 -28 -23 -41 11 -7 10 -9 -4 -9 -11 0 -15 -5 -11 -11 3 -6 1 -15 -7 -19 -7
-5 -14 -16 -15 -25 -4 -27 -19 -38 -98 -75 -85 -40 -84 -38 -120 -180 -14 -52
-52 -201 -85 -330 -32 -129 -67 -278 -76 -330 -9 -52 -32 -158 -52 -235 -32
-125 -36 -157 -41 -307 -4 -149 -2 -178 18 -264 27 -120 48 -144 182 -212 l96
-49 58 24 c80 32 319 110 444 144 123 34 527 132 618 150 58 12 65 16 92 59
16 26 35 62 42 80 6 19 24 48 39 65 115 126 137 161 132 206 -3 22 2 49 11 68
16 30 16 32 -9 57 -14 14 -30 22 -35 19 -6 -3 -10 3 -10 13 0 21 -23 46 -33
36 -3 -3 -13 5 -21 18 -23 35 -93 82 -150 101 -62 21 -59 21 -42 -5 18 -30 31
-102 16 -93 -5 3 -8 11 -5 16 4 5 1 9 -4 9 -16 0 -13 -37 5 -66 9 -13 14 -27
10 -31 -3 -3 -15 14 -25 38 -11 24 -31 59 -45 78 -14 19 -23 37 -21 41 3 4 -4
15 -15 25 -11 10 -20 26 -20 35 0 9 -14 38 -31 64 -16 27 -28 50 -26 53 3 2
19 -10 36 -28 18 -17 35 -28 39 -25 7 8 -29 40 -108 93 -30 21 -96 71 -146
113 -231 190 -317 249 -455 313 -93 43 -96 46 -92 73 3 23 0 20 -11 -11 -9
-22 -16 -60 -17 -85 0 -25 -5 -56 -9 -70 -9 -24 -9 -24 -7 5 2 44 -13 116 -24
109 -9 -5 -10 -1 -11 69 -1 42 -1 42 35 42 21 0 37 5 37 11 0 12 22 24 45 24
8 0 11 -7 8 -19 -10 -37 14 -29 32 11 17 38 17 42 1 53 -16 12 -13 45 4 45 17
0 19 44 2 56 -9 7 -14 16 -10 20 4 4 15 1 24 -7 14 -11 18 -11 30 6 8 10 14
26 14 35 0 26 12 31 27 12 12 -16 14 -16 28 2 22 29 19 101 -5 124 -13 12 -18
25 -14 36 4 11 1 22 -7 27 -23 14 -27 11 -34 -31 -8 -45 8 -74 35 -67 17 4 19
-13 6 -44 -6 -15 -10 -15 -41 0 -21 10 -33 21 -30 30 4 9 0 11 -11 7 -14 -5
-16 -1 -10 26 3 17 13 39 21 48 16 18 20 31 8 29 -23 -4 -31 3 -26 21 10 36
-16 21 -35 -21z m-65 -319 c-3 -15 -2 -31 4 -37 5 -5 7 -17 3 -27 -6 -14 -9
-12 -25 13 -10 17 -16 37 -14 46 3 8 7 22 10 31 8 26 27 3 22 -26z m-27 -54
c0 -3 -4 -8 -10 -11 -5 -3 -10 -1 -10 4 0 6 5 11 10 11 6 0 10 -2 10 -4z m-33
-208 c-3 -8 -6 -5 -6 6 -1 11 2 17 5 13 3 -3 4 -12 1 -19z m195 -124 c2 -64 0
-90 -8 -87 -8 3 -11 -14 -10 -51 1 -31 -3 -56 -7 -56 -9 0 -7 262 1 288 11 31
21 -10 24 -94z m60 64 c6 -18 -3 -68 -13 -68 -5 0 -9 18 -9 40 0 37 13 55 22
28z m83 -56 c-3 -9 1 -11 14 -7 21 6 46 -18 36 -35 -4 -6 -3 -16 2 -23 5 -7 9
-16 8 -22 -9 -71 -19 -115 -26 -115 -5 0 -9 -5 -9 -11 0 -5 5 -7 10 -4 6 3 10
-3 10 -13 0 -12 -6 -19 -17 -18 -10 1 -19 -10 -25 -31 -9 -33 -37 -46 -39 -18
-1 8 -2 21 -3 28 -1 6 -11 23 -23 37 -13 14 -23 36 -23 50 0 14 -4 40 -9 57
-6 20 -6 35 0 38 5 4 9 -8 9 -24 0 -17 5 -31 10 -31 15 0 11 52 -5 74 -8 11
-15 27 -14 35 0 11 2 12 6 3 10 -24 23 0 23 43 l0 44 35 -22 c19 -12 32 -28
30 -35z m-334 -78 c-5 -16 -10 -21 -10 -12 -1 18 10 51 15 45 2 -1 -1 -16 -5
-33z m440 13 c17 -13 17 -11 24 -107 2 -36 7 -78 10 -94 3 -16 0 -35 -6 -42
-8 -10 -9 -14 0 -14 6 0 11 -18 11 -42 0 -24 8 -82 18 -130 14 -69 15 -88 5
-88 -16 0 -30 26 -38 75 -3 22 -11 60 -16 85 -5 25 -14 106 -18 180 -5 74 -12
147 -15 163 -7 29 0 33 25 14z m104 -79 c59 -45 122 -103 131 -121 7 -12 19
-59 28 -103 9 -45 30 -122 47 -170 17 -49 30 -106 29 -126 0 -21 4 -38 10 -38
5 0 10 -9 10 -21 0 -31 -15 -15 -30 33 -7 24 -21 62 -31 85 -11 24 -19 49 -19
56 0 7 -4 17 -8 23 -5 5 -17 36 -27 69 -11 33 -29 71 -41 85 -12 14 -27 35
-34 48 -7 15 -17 21 -27 18 -23 -9 -42 18 -64 91 -11 38 -26 81 -34 96 l-15
28 33 -23 c17 -12 37 -26 42 -30z m-555 16 c0 -8 -5 -12 -11 -8 -8 4 -9 -1 -4
-16 5 -16 4 -20 -5 -15 -8 5 -10 2 -6 -11 3 -11 1 -26 -4 -34 -8 -13 -10 -13
-10 -1 0 11 -4 9 -15 -5 -15 -19 -15 -19 -9 1 23 73 64 131 64 89z m-58 -184
c-17 -49 -19 -52 -26 -30 l-8 25 -8 -25 c-4 -14 -8 -18 -9 -9 -2 34 21 79 40
79 10 0 19 5 19 12 0 6 2 9 5 6 3 -2 -3 -29 -13 -58z m817 -6 c6 -14 11 -34
11 -45 0 -11 8 -34 17 -52 9 -18 16 -36 15 -41 -2 -4 4 -19 13 -32 21 -32 2
-39 -26 -10 -17 17 -27 46 -36 102 -8 43 -21 86 -29 95 -15 16 -14 17 4 12 11
-2 25 -16 31 -29z m-160 -88 c13 -72 14 -86 2 -86 -8 0 -31 105 -31 145 0 36
17 0 29 -59z m-252 22 c-3 -8 -6 -5 -6 6 -1 11 2 17 5 13 3 -3 4 -12 1 -19z
m-447 -64 c0 -8 -4 -12 -10 -9 -5 3 -10 10 -10 16 0 5 5 9 10 9 6 0 10 -7 10
-16z m707 -76 c-3 -8 -6 -5 -6 6 -1 11 2 17 5 13 3 -3 4 -12 1 -19z m228 -45
l18 -28 -21 19 c-12 11 -22 23 -22 28 0 14 7 9 25 -19z m252 5 c13 -17 23 -68
13 -68 -12 0 -34 30 -27 37 4 3 2 14 -4 24 -11 21 3 26 18 7z m95 -90 c5 -14
-20 -44 -29 -35 -3 4 -5 18 -5 31 0 14 -7 31 -14 37 -8 6 -14 19 -14 27 0 12
9 7 29 -15 16 -18 31 -38 33 -45z m-332 23 c0 -10 7 -21 15 -25 8 -3 15 -13
14 -23 0 -17 -1 -17 -8 0 -4 10 -10 18 -14 18 -23 -3 -27 1 -27 24 0 14 5 25
10 25 6 0 10 -9 10 -19z"/>
<path d="M3280 1620 c0 -5 5 -10 10 -10 6 0 10 5 10 10 0 6 -4 10 -10 10 -5 0
-10 -4 -10 -10z"/>
<path d="M3293 1463 c2 -98 16 -139 19 -57 1 27 2 61 1 77 -1 15 3 27 8 27 5
0 9 5 9 12 0 6 -3 8 -7 5 -3 -4 -12 1 -19 11 -11 14 -13 2 -11 -75z"/>
<path d="M3530 1405 c9 -59 20 -69 20 -18 0 22 -6 46 -13 52 -11 9 -13 3 -7
-34z"/>
<path d="M3555 2330 c3 -5 8 -10 11 -10 2 0 4 5 4 10 0 6 -5 10 -11 10 -5 0
-7 -4 -4 -10z"/>
<path d="M1920 2308 c-11 -12 -18 -23 -16 -25 5 -5 66 31 66 40 0 15 -30 6
-50 -15z"/>
<path d="M2933 2294 c-13 -28 -6 -94 10 -94 6 0 5 -5 -1 -13 -6 -7 -9 -23 -5
-35 3 -12 1 -22 -3 -22 -5 0 -10 11 -10 25 -3 40 -12 55 -33 55 -11 0 -21 6
-24 13 -2 6 -12 -12 -21 -42 -19 -63 -20 -74 -6 -66 15 9 12 -4 -5 -21 -8 -9
-15 -27 -14 -42 0 -25 1 -26 9 -5 10 24 52 42 58 25 2 -6 10 -8 18 -5 7 3 12
9 9 13 -3 4 9 7 27 6 26 -1 31 3 33 24 1 13 -4 31 -12 38 -17 18 -13 22 29 31
22 5 33 13 32 24 -1 9 1 17 5 17 4 0 7 9 8 20 2 23 -12 27 -21 5 -10 -26 -24
-16 -31 22 -6 33 -19 53 -35 53 -3 0 -10 -12 -17 -26z m62 -84 c3 -5 1 -10 -4
-10 -6 0 -11 5 -11 10 0 6 2 10 4 10 3 0 8 -4 11 -10z m-105 -80 c0 -5 -4 -10
-10 -10 -5 0 -10 5 -10 10 0 6 5 10 10 10 6 0 10 -4 10 -10z"/>
<path d="M646 2266 c-9 -21 -15 -40 -12 -43 9 -9 38 46 33 64 -3 13 -8 8 -21
-21z"/>
<path d="M3540 2286 c0 -8 7 -16 14 -19 10 -4 14 -19 13 -46 0 -22 2 -43 5
-47 13 -13 27 8 26 39 0 18 1 37 2 42 4 17 0 39 -6 32 -3 -3 -17 -2 -30 3 -18
7 -24 6 -24 -4z"/>
<path d="M4241 2264 c0 -11 3 -14 6 -6 3 7 2 16 -1 19 -3 4 -6 -2 -5 -13z"/>
<path d="M1870 2241 c-11 -21 -14 -79 -4 -68 7 7 23 87 18 87 -2 0 -8 -9 -14
-19z"/>
<path d="M3408 2233 c7 -3 16 -2 19 1 4 3 -2 6 -13 5 -11 0 -14 -3 -6 -6z"/>
<path d="M3430 2211 c0 -6 4 -13 10 -16 6 -3 7 1 4 9 -7 18 -14 21 -14 7z"/>
<path d="M617 2196 c-5 -12 -3 -22 5 -28 18 -11 40 -10 33 2 -4 6 -10 8 -15 5
-5 -3 -10 5 -12 17 -3 21 -4 22 -11 4z"/>
<path d="M3711 2195 c-1 -14 37 -61 43 -54 3 2 -6 18 -19 34 -13 17 -24 26
-24 20z"/>
<path d="M897 2184 c-8 -8 3 -34 14 -34 11 0 12 27 0 34 -4 3 -11 3 -14 0z"/>
<path d="M1120 2186 c0 -2 20 -26 45 -52 52 -53 52 -73 4 -114 -16 -14 -29
-30 -29 -36 0 -17 -29 -70 -45 -84 -8 -7 -15 -21 -15 -31 0 -29 -22 -34 -42
-9 l-18 22 0 -31 c0 -18 8 -46 17 -64 9 -18 16 -35 15 -39 -1 -4 5 -5 12 -2
11 4 16 -13 21 -82 6 -63 4 -89 -4 -92 -6 -2 -11 -23 -11 -47 0 -27 -6 -50
-16 -60 -13 -13 -14 -21 -6 -40 6 -12 8 -33 5 -45 -4 -13 0 -26 8 -31 12 -8
12 -10 0 -18 -23 -15 -4 -46 31 -48 39 -3 51 -14 52 -51 1 -41 16 -29 16 13 0
19 5 37 10 40 6 3 10 1 10 -6 0 -7 2 -10 5 -8 9 9 -18 78 -28 72 -6 -3 -8 -2
-4 3 3 5 -6 59 -20 119 -33 145 -42 284 -19 297 15 8 14 11 -4 26 -18 14 -20
22 -11 44 5 14 15 29 20 33 6 3 11 13 11 20 0 8 16 39 35 69 19 30 35 59 35
64 0 30 58 17 87 -18 7 -8 13 -10 13 -4 0 5 -14 25 -31 42 -30 31 -31 33 -15
51 15 17 15 19 0 31 -12 11 -17 11 -23 1 -7 -10 -12 -10 -30 0 -11 8 -21 17
-21 21 0 4 -13 16 -30 28 -16 12 -30 19 -30 16z"/>
<path d="M1294 2175 c-9 -22 1 -29 15 -11 8 10 9 16 1 21 -5 3 -13 -1 -16 -10z"/>
<path d="M3460 2171 c0 -6 4 -13 10 -16 6 -3 7 1 4 9 -7 18 -14 21 -14 7z"/>
<path d="M3380 2149 c0 -4 7 -9 15 -13 9 -3 15 -18 15 -38 1 -30 2 -32 15 -14
7 10 18 15 24 11 6 -3 11 0 11 8 0 8 -7 18 -16 21 -8 3 -13 10 -10 15 3 5 -8
11 -24 13 -17 3 -30 1 -30 -3z"/>
<path d="M6104 2139 c-6 -8 -15 -25 -19 -39 -4 -14 -14 -34 -21 -45 -8 -11
-14 -40 -14 -66 0 -36 7 -55 33 -90 l32 -44 3 78 c5 132 -1 222 -14 206z"/>
<path d="M3700 2115 c0 -2 10 -10 23 -16 20 -11 21 -11 8 4 -13 16 -31 23 -31
12z"/>
<path d="M3650 2100 c0 -5 5 -10 11 -10 5 0 7 5 4 10 -3 6 -8 10 -11 10 -2 0
-4 -4 -4 -10z"/>
<path d="M3834 2081 c-4 -17 -12 -32 -19 -35 -10 -4 -7 -22 13 -81 24 -71 27
-75 38 -53 12 22 13 22 20 4 4 -10 3 -26 -2 -35 -7 -11 -5 -27 7 -51 10 -19
18 -28 19 -19 0 10 9 16 29 16 27 0 28 -2 20 -36 -6 -29 -4 -38 14 -54 15 -13
17 -18 7 -17 -33 5 -60 -1 -60 -12 1 -27 57 -131 64 -119 5 7 20 9 41 5 28 -5
34 -3 40 15 4 12 17 32 30 45 13 13 21 27 18 30 -4 3 -1 6 6 6 7 0 9 5 6 10
-4 6 -12 10 -18 9 -22 -4 -66 13 -71 27 -3 8 0 14 6 14 6 0 3 10 -8 21 -14 16
-15 23 -6 26 36 13 -12 53 -65 53 -17 0 -23 4 -20 14 3 8 -1 13 -11 12 -13 -1
-16 6 -14 29 2 17 8 32 13 33 12 5 12 42 0 42 -5 0 -7 9 -4 20 4 16 0 20 -20
20 -14 0 -29 5 -32 10 -3 6 -1 10 4 10 6 0 11 7 11 16 0 8 -4 12 -10 9 -6 -4
-10 5 -10 19 0 37 -29 34 -36 -3z m176 -337 c0 -8 -5 -12 -10 -9 -6 4 -8 11
-5 16 9 14 15 11 15 -7z"/>
<path d="M3800 2074 c0 -8 5 -12 10 -9 6 3 10 10 10 16 0 5 -4 9 -10 9 -5 0
-10 -7 -10 -16z"/>
<path d="M3607 2073 c-12 -21 -15 -60 -7 -73 8 -12 10 -9 10 11 0 27 16 49 37
49 7 0 13 -9 13 -20 0 -11 5 -20 10 -20 6 0 10 -9 10 -20 0 -22 -16 -27 -23
-7 -2 6 -8 8 -13 4 -4 -4 -2 -17 5 -29 7 -11 8 -17 2 -13 -14 8 -15 -34 -2
-68 5 -13 21 -36 34 -51 21 -23 26 -24 37 -11 8 10 26 14 50 13 47 -4 42 -21
-8 -34 -22 -5 -37 -15 -37 -24 0 -23 35 -24 75 -1 33 18 39 19 64 5 25 -13 27
-12 16 1 -7 8 -19 15 -26 15 -9 0 -14 12 -14 34 l0 34 -45 -3 c-25 -1 -48 1
-51 6 -2 5 2 22 11 39 9 17 13 35 10 40 -9 14 -33 12 -38 -2 -2 -7 -7 -10 -11
-7 -3 3 3 15 14 27 12 12 16 22 10 22 -6 0 -19 7 -27 16 -14 13 -14 17 -2 25
11 6 6 11 -18 20 -18 6 -33 15 -33 20 0 11 -47 12 -53 2z"/>
<path d="M2930 2054 c0 -8 5 -12 10 -9 6 3 10 10 10 16 0 5 -4 9 -10 9 -5 0
-10 -7 -10 -16z"/>
<path d="M3198 2045 c-3 -14 -2 -25 2 -25 4 0 10 11 12 25 3 14 2 25 -2 25 -4
0 -10 -11 -12 -25z"/>
<path d="M3366 2048 c6 -28 -10 -41 -19 -15 -2 6 -8 9 -12 4 -11 -9 15 -57 31
-57 6 0 15 -7 18 -16 4 -9 9 -14 13 -10 4 3 17 -4 30 -16 16 -15 22 -17 18 -7
-3 9 1 23 9 32 14 13 13 17 -9 31 -13 9 -34 16 -45 16 -12 0 -18 4 -15 10 3 5
-1 20 -10 32 l-16 23 7 -27z"/>
<path d="M2885 2029 c-11 -17 -2 -18 19 -3 17 12 17 14 4 14 -9 0 -20 -5 -23
-11z"/>
<path d="M2806 2004 c-3 -9 -6 -23 -6 -31 0 -14 3 -14 20 2 11 10 20 24 20 32
0 18 -27 16 -34 -3z"/>
<path d="M3280 1968 c0 -13 4 -29 9 -37 8 -12 11 -12 23 0 12 12 11 17 -9 37
l-23 23 0 -23z"/>
<path d="M3155 1971 c-3 -5 -1 -12 5 -16 12 -7 30 2 30 16 0 12 -27 12 -35 0z"/>
<path d="M3780 1970 c0 -6 7 -10 15 -10 8 0 15 2 15 4 0 2 -7 6 -15 10 -8 3
-15 1 -15 -4z"/>
<path d="M1324 1927 c17 -68 32 -79 62 -44 13 15 24 38 24 49 0 19 -2 20 -17
6 -24 -20 -37 -17 -61 12 l-20 25 12 -48z"/>
<path d="M1663 1931 c-25 -21 -27 -30 -25 -106 2 -63 42 -131 81 -138 45 -9
74 14 111 88 40 80 73 99 131 75 59 -25 56 -72 -9 -146 -20 -23 -45 -54 -55
-68 -11 -15 -30 -31 -44 -37 -24 -9 -28 -29 -7 -36 20 -7 133 76 157 114 31
50 48 119 37 149 -5 13 -24 31 -42 40 -18 9 -40 23 -50 31 -31 27 -75 -7 -161
-127 -38 -52 -52 -55 -80 -19 -27 37 -33 108 -13 147 28 54 13 70 -31 33z"/>
<path d="M4040 1919 c-13 -9 -12 -10 3 -5 11 3 20 0 23 -9 4 -8 10 -15 15 -15
6 0 5 9 -1 20 -12 23 -19 24 -40 9z"/>
<path d="M974 1886 c-3 -14 -4 -39 -1 -53 5 -24 4 -26 -8 -10 -11 15 -13 13
-19 -23 -3 -23 -2 -49 4 -60 8 -15 8 -20 -2 -20 -7 0 -14 -14 -15 -31 -2 -23
1 -28 10 -21 7 5 21 8 32 6 23 -3 35 12 35 46 -1 22 -2 23 -11 8 -5 -10 -14
-18 -20 -18 -12 0 -1 47 17 77 18 29 17 83 -1 107 -13 18 -14 17 -21 -8z m13
-28 c-3 -8 -6 -5 -6 6 -1 11 2 17 5 13 3 -3 4 -12 1 -19z"/>
<path d="M3135 1880 c-3 -5 -1 -10 4 -10 6 0 11 5 11 10 0 6 -2 10 -4 10 -3 0
-8 -4 -11 -10z"/>
<path d="M3565 1880 c3 -5 13 -10 21 -10 8 0 12 5 9 10 -3 6 -13 10 -21 10 -8
0 -12 -4 -9 -10z"/>
<path d="M3340 1856 c-15 -15 -12 -26 9 -26 15 0 31 18 31 34 0 7 -31 1 -40
-8z"/>
<path d="M3547 1847 c9 -13 10 -19 12 -45 1 -17 18 -39 56 -70 9 -8 23 -11 33
-6 9 4 20 6 25 6 4 -1 7 6 7 16 0 21 -31 51 -73 72 -16 8 -24 16 -18 18 21 7
11 17 -19 19 -22 2 -29 -1 -23 -10z"/>
<path d="M2996 1842 c-2 -4 -1 -14 4 -22 7 -11 9 -9 7 8 -1 24 -3 26 -11 14z"/>
<path d="M3304 1798 c-7 -11 69 -88 86 -88 16 0 11 18 -7 29 -10 5 -17 21 -18
37 0 24 -5 29 -27 31 -15 1 -31 -3 -34 -9z"/>
<path d="M4046 1791 c-4 -7 -5 -15 -2 -18 9 -9 19 4 14 18 -4 11 -6 11 -12 0z"/>
<path d="M3831 1764 c0 -11 3 -14 6 -6 3 7 2 16 -1 19 -3 4 -6 -2 -5 -13z"/>
<path d="M1137 1683 c-2 -5 9 -28 24 -53 27 -41 29 -42 29 -17 0 50 -37 99
-53 70z"/>
<path d="M3640 1660 c0 -19 3 -21 12 -12 9 9 9 15 0 24 -9 9 -12 7 -12 -12z"/>
<path d="M3790 1670 c-8 -5 -23 -7 -32 -4 -10 3 -18 1 -18 -5 0 -6 11 -13 25
-17 24 -6 37 -44 15 -44 -15 0 -12 -16 5 -33 8 -9 25 -13 37 -10 16 3 19 2 10
-4 -8 -6 -10 -17 -5 -29 6 -17 5 -17 -10 -5 -15 12 -17 11 -17 -8 0 -11 5 -21
10 -21 6 0 10 -11 10 -25 0 -22 3 -23 23 -16 13 5 30 5 37 1 18 -11 30 -4 30
17 0 9 7 21 17 28 20 15 7 39 -18 32 -22 -6 -24 10 -8 47 17 37 4 71 -35 90
-39 18 -55 20 -76 6z m83 -149 c5 -22 -1 -33 -14 -25 -12 7 -12 44 0 44 5 0
11 -9 14 -19z"/>
<path d="M3519 1643 c-3 -45 28 -93 61 -93 23 0 14 61 -10 67 -10 3 -20 13
-23 24 -6 24 -27 25 -28 2z"/>
<path d="M1670 1624 c0 -10 -6 -14 -17 -10 -10 3 -29 -4 -43 -15 -14 -11 -19
-18 -12 -14 7 4 12 -1 12 -13 0 -11 -7 -23 -16 -26 -28 -11 -54 -6 -54 9 0 35
-66 8 -97 -40 -25 -37 -29 -55 -13 -55 6 0 10 -4 10 -10 0 -5 -7 -10 -16 -10
-14 0 -15 -2 -3 -16 16 -20 20 -69 9 -100 -6 -16 -4 -26 8 -37 29 -25 100 -57
115 -51 8 3 38 -6 67 -20 43 -21 56 -23 78 -14 22 9 23 12 10 15 -14 4 -16 8
-8 24 6 10 17 19 24 19 9 0 12 10 10 30 -5 41 12 84 31 76 8 -3 17 -1 20 5 4
5 -1 12 -9 15 -11 4 -16 19 -16 48 0 23 -6 51 -14 61 -7 10 -11 28 -9 39 3 19
3 19 -8 -1 -15 -29 -33 -30 -26 -1 10 35 -4 108 -19 108 -8 0 -14 -7 -14 -16z
m7 -330 c-3 -3 -12 -4 -19 -1 -8 3 -5 6 6 6 11 1 17 -2 13 -5z"/>
<path d="M1720 1621 c0 -5 9 -19 20 -32 22 -28 28 -6 6 24 -14 18 -26 22 -26
8z"/>
<path d="M4090 1625 c0 -10 29 -24 34 -17 3 6 -3 12 -14 15 -11 3 -20 4 -20 2z"/>
<path d="M4000 1536 c0 -49 1 -51 48 -61 26 -5 32 -3 32 10 0 12 -6 15 -20 10
-11 -3 -20 -3 -20 2 0 14 16 34 26 32 24 -4 44 2 44 15 0 8 -8 13 -17 12 -10
-2 -21 1 -25 7 -4 6 -12 4 -23 -6 -20 -21 -43 -23 -26 -4 6 8 8 17 4 20 -16
16 -23 4 -23 -37z"/>
<path d="M1837 1533 c-12 -11 -8 -23 8 -23 8 0 15 7 15 15 0 16 -12 20 -23 8z"/>
<path d="M4133 1505 c-7 -8 -13 -20 -13 -27 0 -19 -35 -46 -57 -45 -10 1 -18
-4 -17 -10 1 -7 2 -22 3 -33 0 -13 8 -20 21 -20 11 0 20 -4 20 -10 0 -19 19
-10 26 12 3 12 17 33 30 47 27 28 31 59 12 83 -11 14 -15 15 -25 3z"/>
<path d="M3715 1480 c3 -5 17 -10 31 -10 14 0 22 4 19 10 -3 6 -17 10 -31 10
-14 0 -22 -4 -19 -10z"/>
<path d="M1400 1396 c0 -9 5 -16 10 -16 6 0 10 4 10 9 0 6 -4 13 -10 16 -5 3
-10 -1 -10 -9z"/>
<path d="M1850 1369 c0 -5 5 -7 10 -4 6 3 10 8 10 11 0 2 -4 4 -10 4 -5 0 -10
-5 -10 -11z"/>
<path d="M1818 1329 c-10 -10 -18 -27 -18 -36 1 -14 6 -12 25 10 38 42 30 67
-7 26z"/>
<path d="M4967 1319 c4 -13 8 -18 11 -10 2 7 -1 18 -6 23 -8 8 -9 4 -5 -13z"/>
<path d="M1047 1269 c7 -7 15 -10 18 -7 3 3 -2 9 -12 12 -14 6 -15 5 -6 -5z"/>
<path d="M1772 1258 c-7 -7 -12 -21 -12 -32 0 -20 2 -19 20 4 11 14 20 28 20
33 0 11 -15 8 -28 -5z"/>
<path d="M4104 1262 c4 -3 14 -7 22 -8 9 -1 13 0 10 4 -4 3 -14 7 -22 8 -9 1
-13 0 -10 -4z"/>
<path d="M1103 1243 c-26 -5 -30 -18 -8 -27 9 -3 19 3 25 14 6 11 9 19 8 19
-2 -1 -13 -4 -25 -6z"/>
<path d="M1725 1240 c-3 -5 1 -10 9 -10 9 0 16 5 16 10 0 6 -4 10 -9 10 -6 0
-13 -4 -16 -10z"/>
<path d="M4126 1227 c3 -10 9 -15 12 -12 3 3 0 11 -7 18 -10 9 -11 8 -5 -6z"/>
<path d="M1152 1172 c-8 -6 -9 -17 -3 -37 8 -24 9 -26 10 -8 1 12 6 25 12 29
8 4 9 -3 4 -25 -5 -23 -3 -31 7 -31 10 0 13 9 10 30 -5 34 -22 52 -40 42z"/>
<path d="M5370 1171 c0 -5 7 -12 16 -15 14 -5 15 -4 4 9 -14 17 -20 19 -20 6z"/>
<path d="M4010 1160 c0 -5 5 -10 11 -10 5 0 7 5 4 10 -3 6 -8 10 -11 10 -2 0
-4 -4 -4 -10z"/>
<path d="M5550 1066 c0 -8 51 -13 56 -5 3 5 -9 9 -25 9 -17 0 -31 -2 -31 -4z"/>
<path d="M5575 1031 c-3 -5 -1 -12 5 -16 5 -3 10 1 10 9 0 18 -6 21 -15 7z"/>
<path d="M1233 940 c8 -109 43 -285 64 -316 8 -12 25 -25 39 -28 23 -6 34 -26
14 -26 -7 0 -7 -7 0 -20 6 -11 8 -25 5 -30 -3 -5 0 -12 6 -16 8 -5 10 1 7 20
-3 14 -2 26 1 26 4 0 8 10 9 23 1 21 -55 117 -70 117 -4 0 -9 -12 -11 -27 -3
-21 -4 -17 -6 13 0 22 -8 62 -17 88 -12 35 -13 51 -5 59 8 8 11 3 11 -19 0
-16 8 -41 18 -54 l17 -25 8 60 c15 108 10 188 -11 180 -8 -3 -30 11 -49 30
l-36 36 6 -91z"/>
</g>
</svg>
